{"title":"Australian Crime Stories - S01E02 - Chris Flannery","uid":16042144,"size":402424397,"categoryP":"video","categoryS":"tv_shows","magnet":"?xt=urn:btih:9adb9e2334d11fc5387fb5739c7fe19f1e933262&amp;dn=Australian+Crime+Stories+-+S01E02+-+Chris+Flannery&amp;tr=udp%3A%2F%2Ftracker.leechers-paradise.org%3A6969&amp;tr=udp%3A%2F%2Fzer0day.ch%3A1337&amp;tr=udp%3A%2F%2Fopen.demonii.com%3A1337&amp;tr=udp%3A%2F%2Ftracker.coppersurfer.tk%3A6969&amp;tr=udp%3A%2F%2Fexodus.desync.com%3A6969","seeders":31,"leechers":8,"uploader":"Bullrout","files":1,"time":1476520973,"description":"Australian Crime Stories - S01E02 - Chris Flannery\r\n\r\nThe stories behind what made and shaped the most notorious figures in Australian criminal history.\r\n\r\nComplete name                            : Australian Crime Stories - S01E02 - Chris Flannery.mp4\r\nFormat                                   : MPEG-4\r\nFormat profile                           : Base Media / Version 2\r\nCodec ID                                 : mp42 (mp42/isom/avc1)\r\nFile size                                : 384 MiB\r\nDuration                                 : 48 min 37 s\r\nOverall bit rate mode                    : Variable\r\nOverall bit rate                         : 1 104 kb/s\r\n\r\nVideo\r\nID                                       : 2\r\nFormat                                   : AVC\r\nFormat/Info                              : Advanced Video Codec\r\nFormat profile                           :   \r\nFormat settings, CABAC                   : Yes\r\nFormat settings, ReFrames                : 3 frames\r\nCodec ID                                 : avc1\r\nCodec ID/Info                            : Advanced Video Coding\r\nDuration                                 : 48 min 37 s\r\nBit rate mode                            : Variable\r\nBit rate                                 : 972 kb/s\r\nMaximum bit rate                         : 1 000 kb/s\r\nWidth                                    : 720 pixels\r\nHeight                                   : 404 pixels\r\nDisplay aspect ratio                     : 16:9\r\nOriginal display aspect ratio            : 16:9\r\nFrame rate mode                          : Constant\r\nFrame rate                               : 25.000 FPS\r\nStandard                                 : PAL\r\nColor space                              : YUV\r\nChroma subsampling                       : 4:2:0\r\nBit depth                                : 8 bits\r\nScan type                                : Progressive\r\nBits/(Pixel*Frame)                       : 0.134\r\nStream size                              : 338 MiB (88%)\r\nWriting library                          : x264 core 112\r\nColor range                              : Limited\r\nColor primaries                          : BT.601 PAL\r\nTransfer characteristics                 : BT.470 System B, BT.470 System G\r\nMatrix coefficients                      : BT.601\r\n\r\nAudio\r\nID                                       : 1\r\nFormat                                   : AAC\r\nFormat/Info                              : Advanced Audio Codec\r\nFormat profile                           : LC\r\nCodec ID                                 : 40\r\nDuration                                 : 48 min 37 s\r\nBit rate mode                            : Variable\r\nBit rate                                 : 128 kb/s\r\nMaximum bit rate                         : 576 kb/s\r\nChannel(s)                               : 2 channels\r\nChannel positions                        : Front: L R\r\nSampling rate                            : 48.0 kHz\r\nFrame rate                               : 46.875 FPS (1024 spf)\r\nCompression mode                         : Lossy\r\nStream size                              : 44.5 MiB (12%)","torrent":{"xt":"urn:btih:9adb9e2334d11fc5387fb5739c7fe19f1e933262","amp;dn":"Australian+Crime+Stories+-+S01E02+-+Chris+Flannery","amp;tr":["udp%3A%2F%2Ftracker.leechers-paradise.org%3A6969","udp%3A%2F%2Fzer0day.ch%3A1337","udp%3A%2F%2Fopen.demonii.com%3A1337","udp%3A%2F%2Ftracker.coppersurfer.tk%3A6969","udp%3A%2F%2Fexodus.desync.com%3A6969"],"infoHash":"9adb9e2334d11fc5387fb5739c7fe19f1e933262","infoHashBuffer":{"type":"Buffer","data":[154,219,158,35,52,209,31,197,56,127,181,115,156,127,225,159,30,147,50,98]},"announce":[],"urlList":[]}}